# xmcd
#
# Track frame offsets:
#	150
#	13133
#	29481
#	45133
#	52935
#	75485
#	89699
#	98764
#	112882
#	122227
#	133812
#	148767
#	160384
#	174764
#	191449
#	208013
#	222928
#	239032
#	246312
#
# Disc length: 3433 seconds
#
# Revision: 0
# Processed by: cddbd v1.5.2PL0 Copyright (c) Steve Scherf et al.
# Submitted via: EZCDAudioConverter 1.2.5.1
#
DISCID=090d6713
DTITLE=Various Artist - Revolution rock: Joe Strummer memorial night at Klubi
DYEAR=2004
DGENRE=
TTITLE0=Js and the Strummers - Keys to Your Heart
TTITLE1=Js and the Strummers - Harder They Come
TTITLE2=Js and the Strummers - Coma Girl
TTITLE3=Control - 1977
TTITLE4=Control feat. Epe - Police and Thieves
TTITLE5=Control feat. Joey Luumäki - Tommy Gun
TTITLE6=Control feat. Miika Söderholm - Kotka Palaa
TTITLE7=Control feat. Kana - Should I Stay or Should I Go
TTITLE8=Control feat. Pepe Lampinen - Career Opportunies
TTITLE9=Control feat. Laura Sippola - I'm So Bored with the USA
TTITLE10=Control feat. Tumppi Varonen and Stefan Piesnack - Garageland
TTITLE11=Control feat. Pekka Myllykoski - I Fought the Law
TTITLE12=Control - Guns of Brixton
TTITLE13=Control feat. Jonna Kosonen - Rock the Casbah
TTITLE14=Control feat. Jasse - Safe European Home
TTITLE15=Control feat. Vesa Häkli - London Calling
TTITLE16=Control - White Man in Hammersmith Palais
TTITLE17=Control - What's My Name
TTITLE18=All of them - White Riot
EXTD=
EXTT0=
EXTT1=
EXTT2=
EXTT3=
EXTT4=
EXTT5=
EXTT6=
EXTT7=
EXTT8=
EXTT9=
EXTT10=
EXTT11=
EXTT12=
EXTT13=
EXTT14=
EXTT15=
EXTT16=
EXTT17=
EXTT18=
PLAYORDER=
